<?xml version="1.0"?><svg xmlns="http://www.w3.org/2000/svg" width="360" height="288"><rect x="0" y="0" width="100%" height="100%" fill="rgb(223, 230, 233)" /><path d="M0 48 C 63 0, 117 0, 180 48 S 297 96, 360 48 S 477 0, 540, 48" fill="none" stroke="#222" style="opacity:0.13266666666667;stroke-width:8px;" transform="translate(-90, -72)" /><path d="M0 48 C 63 0, 117 0, 180 48 S 297 96, 360 48 S 477 0, 540, 48" fill="none" stroke="#222" style="opacity:0.13266666666667;stroke-width:8px;" transform="translate(-90, 216)" /><path d="M0 48 C 63 0, 117 0, 180 48 S 297 96, 360 48 S 477 0, 540, 48" fill="none" stroke="#ddd" style="opacity:0.054666666666667;stroke-width:8px;" transform="translate(-90, -64)" /><path d="M0 48 C 63 0, 117 0, 180 48 S 297 96, 360 48 S 477 0, 540, 48" fill="none" stroke="#ddd" style="opacity:0.054666666666667;stroke-width:8px;" transform="translate(-90, 224)" /><path d="M0 48 C 63 0, 117 0, 180 48 S 297 96, 360 48 S 477 0, 540, 48" fill="none" stroke="#222" style="opacity:0.046;stroke-width:8px;" transform="translate(-90, -56)" /><path d="M0 48 C 63 0, 117 0, 180 48 S 297 96, 360 48 S 477 0, 540, 48" fill="none" stroke="#222" style="opacity:0.046;stroke-width:8px;" transform="translate(-90, 232)" /><path d="M0 48 C 63 0, 117 0, 180 48 S 297 96, 360 48 S 477 0, 540, 48" fill="none" stroke="#222" style="opacity:0.063333333333333;stroke-width:8px;" transform="translate(-90, -48)" /><path d="M0 48 C 63 0, 117 0, 180 48 S 297 96, 360 48 S 477 0, 540, 48" fill="none" stroke="#222" style="opacity:0.063333333333333;stroke-width:8px;" transform="translate(-90, 240)" /><path d="M0 48 C 63 0, 117 0, 180 48 S 297 96, 360 48 S 477 0, 540, 48" fill="none" stroke="#ddd" style="opacity:0.10666666666667;stroke-width:8px;" transform="translate(-90, -40)" /><path d="M0 48 C 63 0, 117 0, 180 48 S 297 96, 360 48 S 477 0, 540, 48" fill="none" stroke="#ddd" style="opacity:0.10666666666667;stroke-width:8px;" transform="translate(-90, 248)" /><path d="M0 48 C 63 0, 117 0, 180 48 S 297 96, 360 48 S 477 0, 540, 48" fill="none" stroke="#ddd" style="opacity:0.072;stroke-width:8px;" transform="translate(-90, -32)" /><path d="M0 48 C 63 0, 117 0, 180 48 S 297 96, 360 48 S 477 0, 540, 48" fill="none" stroke="#ddd" style="opacity:0.072;stroke-width:8px;" transform="translate(-90, 256)" /><path d="M0 48 C 63 0, 117 0, 180 48 S 297 96, 360 48 S 477 0, 540, 48" fill="none" stroke="#ddd" style="opacity:0.124;stroke-width:8px;" transform="translate(-90, -24)" /><path d="M0 48 C 63 0, 117 0, 180 48 S 297 96, 360 48 S 477 0, 540, 48" fill="none" stroke="#ddd" style="opacity:0.124;stroke-width:8px;" transform="translate(-90, 264)" /><path d="M0 48 C 63 0, 117 0, 180 48 S 297 96, 360 48 S 477 0, 540, 48" fill="none" stroke="#222" style="opacity:0.13266666666667;stroke-width:8px;" transform="translate(-90, -16)" /><path d="M0 48 C 63 0, 117 0, 180 48 S 297 96, 360 48 S 477 0, 540, 48" fill="none" stroke="#222" style="opacity:0.13266666666667;stroke-width:8px;" transform="translate(-90, 272)" /><path d="M0 48 C 63 0, 117 0, 180 48 S 297 96, 360 48 S 477 0, 540, 48" fill="none" stroke="#222" style="opacity:0.13266666666667;stroke-width:8px;" transform="translate(-90, -8)" /><path d="M0 48 C 63 0, 117 0, 180 48 S 297 96, 360 48 S 477 0, 540, 48" fill="none" stroke="#222" style="opacity:0.13266666666667;stroke-width:8px;" transform="translate(-90, 280)" /><path d="M0 48 C 63 0, 117 0, 180 48 S 297 96, 360 48 S 477 0, 540, 48" fill="none" stroke="#222" style="opacity:0.080666666666667;stroke-width:8px;" transform="translate(-90, 0)" /><path d="M0 48 C 63 0, 117 0, 180 48 S 297 96, 360 48 S 477 0, 540, 48" fill="none" stroke="#222" style="opacity:0.080666666666667;stroke-width:8px;" transform="translate(-90, 288)" /><path d="M0 48 C 63 0, 117 0, 180 48 S 297 96, 360 48 S 477 0, 540, 48" fill="none" stroke="#ddd" style="opacity:0.089333333333333;stroke-width:8px;" transform="translate(-90, 8)" /><path d="M0 48 C 63 0, 117 0, 180 48 S 297 96, 360 48 S 477 0, 540, 48" fill="none" stroke="#ddd" style="opacity:0.089333333333333;stroke-width:8px;" transform="translate(-90, 296)" /><path d="M0 48 C 63 0, 117 0, 180 48 S 297 96, 360 48 S 477 0, 540, 48" fill="none" stroke="#ddd" style="opacity:0.072;stroke-width:8px;" transform="translate(-90, 16)" /><path d="M0 48 C 63 0, 117 0, 180 48 S 297 96, 360 48 S 477 0, 540, 48" fill="none" stroke="#ddd" style="opacity:0.072;stroke-width:8px;" transform="translate(-90, 304)" /><path d="M0 48 C 63 0, 117 0, 180 48 S 297 96, 360 48 S 477 0, 540, 48" fill="none" stroke="#222" style="opacity:0.046;stroke-width:8px;" transform="translate(-90, 24)" /><path d="M0 48 C 63 0, 117 0, 180 48 S 297 96, 360 48 S 477 0, 540, 48" fill="none" stroke="#222" style="opacity:0.046;stroke-width:8px;" transform="translate(-90, 312)" /><path d="M0 48 C 63 0, 117 0, 180 48 S 297 96, 360 48 S 477 0, 540, 48" fill="none" stroke="#ddd" style="opacity:0.02;stroke-width:8px;" transform="translate(-90, 32)" /><path d="M0 48 C 63 0, 117 0, 180 48 S 297 96, 360 48 S 477 0, 540, 48" fill="none" stroke="#ddd" style="opacity:0.02;stroke-width:8px;" transform="translate(-90, 320)" /><path d="M0 48 C 63 0, 117 0, 180 48 S 297 96, 360 48 S 477 0, 540, 48" fill="none" stroke="#ddd" style="opacity:0.02;stroke-width:8px;" transform="translate(-90, 40)" /><path d="M0 48 C 63 0, 117 0, 180 48 S 297 96, 360 48 S 477 0, 540, 48" fill="none" stroke="#ddd" style="opacity:0.02;stroke-width:8px;" transform="translate(-90, 328)" /><path d="M0 48 C 63 0, 117 0, 180 48 S 297 96, 360 48 S 477 0, 540, 48" fill="none" stroke="#222" style="opacity:0.13266666666667;stroke-width:8px;" transform="translate(-90, 48)" /><path d="M0 48 C 63 0, 117 0, 180 48 S 297 96, 360 48 S 477 0, 540, 48" fill="none" stroke="#222" style="opacity:0.13266666666667;stroke-width:8px;" transform="translate(-90, 336)" /><path d="M0 48 C 63 0, 117 0, 180 48 S 297 96, 360 48 S 477 0, 540, 48" fill="none" stroke="#222" style="opacity:0.15;stroke-width:8px;" transform="translate(-90, 56)" /><path d="M0 48 C 63 0, 117 0, 180 48 S 297 96, 360 48 S 477 0, 540, 48" fill="none" stroke="#222" style="opacity:0.15;stroke-width:8px;" transform="translate(-90, 344)" /><path d="M0 48 C 63 0, 117 0, 180 48 S 297 96, 360 48 S 477 0, 540, 48" fill="none" stroke="#222" style="opacity:0.15;stroke-width:8px;" transform="translate(-90, 64)" /><path d="M0 48 C 63 0, 117 0, 180 48 S 297 96, 360 48 S 477 0, 540, 48" fill="none" stroke="#222" style="opacity:0.15;stroke-width:8px;" transform="translate(-90, 352)" /><path d="M0 48 C 63 0, 117 0, 180 48 S 297 96, 360 48 S 477 0, 540, 48" fill="none" stroke="#ddd" style="opacity:0.037333333333333;stroke-width:8px;" transform="translate(-90, 72)" /><path d="M0 48 C 63 0, 117 0, 180 48 S 297 96, 360 48 S 477 0, 540, 48" fill="none" stroke="#ddd" style="opacity:0.037333333333333;stroke-width:8px;" transform="translate(-90, 360)" /><path d="M0 48 C 63 0, 117 0, 180 48 S 297 96, 360 48 S 477 0, 540, 48" fill="none" stroke="#ddd" style="opacity:0.02;stroke-width:8px;" transform="translate(-90, 80)" /><path d="M0 48 C 63 0, 117 0, 180 48 S 297 96, 360 48 S 477 0, 540, 48" fill="none" stroke="#ddd" style="opacity:0.02;stroke-width:8px;" transform="translate(-90, 368)" /><path d="M0 48 C 63 0, 117 0, 180 48 S 297 96, 360 48 S 477 0, 540, 48" fill="none" stroke="#ddd" style="opacity:0.054666666666667;stroke-width:8px;" transform="translate(-90, 88)" /><path d="M0 48 C 63 0, 117 0, 180 48 S 297 96, 360 48 S 477 0, 540, 48" fill="none" stroke="#ddd" style="opacity:0.054666666666667;stroke-width:8px;" transform="translate(-90, 376)" /><path d="M0 48 C 63 0, 117 0, 180 48 S 297 96, 360 48 S 477 0, 540, 48" fill="none" stroke="#ddd" style="opacity:0.14133333333333;stroke-width:8px;" transform="translate(-90, 96)" /><path d="M0 48 C 63 0, 117 0, 180 48 S 297 96, 360 48 S 477 0, 540, 48" fill="none" stroke="#ddd" style="opacity:0.14133333333333;stroke-width:8px;" transform="translate(-90, 384)" /><path d="M0 48 C 63 0, 117 0, 180 48 S 297 96, 360 48 S 477 0, 540, 48" fill="none" stroke="#ddd" style="opacity:0.14133333333333;stroke-width:8px;" transform="translate(-90, 104)" /><path d="M0 48 C 63 0, 117 0, 180 48 S 297 96, 360 48 S 477 0, 540, 48" fill="none" stroke="#ddd" style="opacity:0.14133333333333;stroke-width:8px;" transform="translate(-90, 392)" /><path d="M0 48 C 63 0, 117 0, 180 48 S 297 96, 360 48 S 477 0, 540, 48" fill="none" stroke="#222" style="opacity:0.080666666666667;stroke-width:8px;" transform="translate(-90, 112)" /><path d="M0 48 C 63 0, 117 0, 180 48 S 297 96, 360 48 S 477 0, 540, 48" fill="none" stroke="#222" style="opacity:0.080666666666667;stroke-width:8px;" transform="translate(-90, 400)" /><path d="M0 48 C 63 0, 117 0, 180 48 S 297 96, 360 48 S 477 0, 540, 48" fill="none" stroke="#ddd" style="opacity:0.124;stroke-width:8px;" transform="translate(-90, 120)" /><path d="M0 48 C 63 0, 117 0, 180 48 S 297 96, 360 48 S 477 0, 540, 48" fill="none" stroke="#ddd" style="opacity:0.124;stroke-width:8px;" transform="translate(-90, 408)" /><path d="M0 48 C 63 0, 117 0, 180 48 S 297 96, 360 48 S 477 0, 540, 48" fill="none" stroke="#ddd" style="opacity:0.037333333333333;stroke-width:8px;" transform="translate(-90, 128)" /><path d="M0 48 C 63 0, 117 0, 180 48 S 297 96, 360 48 S 477 0, 540, 48" fill="none" stroke="#ddd" style="opacity:0.037333333333333;stroke-width:8px;" transform="translate(-90, 416)" /><path d="M0 48 C 63 0, 117 0, 180 48 S 297 96, 360 48 S 477 0, 540, 48" fill="none" stroke="#ddd" style="opacity:0.14133333333333;stroke-width:8px;" transform="translate(-90, 136)" /><path d="M0 48 C 63 0, 117 0, 180 48 S 297 96, 360 48 S 477 0, 540, 48" fill="none" stroke="#ddd" style="opacity:0.14133333333333;stroke-width:8px;" transform="translate(-90, 424)" /><path d="M0 48 C 63 0, 117 0, 180 48 S 297 96, 360 48 S 477 0, 540, 48" fill="none" stroke="#222" style="opacity:0.15;stroke-width:8px;" transform="translate(-90, 144)" /><path d="M0 48 C 63 0, 117 0, 180 48 S 297 96, 360 48 S 477 0, 540, 48" fill="none" stroke="#222" style="opacity:0.15;stroke-width:8px;" transform="translate(-90, 432)" /><path d="M0 48 C 63 0, 117 0, 180 48 S 297 96, 360 48 S 477 0, 540, 48" fill="none" stroke="#222" style="opacity:0.098;stroke-width:8px;" transform="translate(-90, 152)" /><path d="M0 48 C 63 0, 117 0, 180 48 S 297 96, 360 48 S 477 0, 540, 48" fill="none" stroke="#222" style="opacity:0.098;stroke-width:8px;" transform="translate(-90, 440)" /><path d="M0 48 C 63 0, 117 0, 180 48 S 297 96, 360 48 S 477 0, 540, 48" fill="none" stroke="#ddd" style="opacity:0.054666666666667;stroke-width:8px;" transform="translate(-90, 160)" /><path d="M0 48 C 63 0, 117 0, 180 48 S 297 96, 360 48 S 477 0, 540, 48" fill="none" stroke="#ddd" style="opacity:0.054666666666667;stroke-width:8px;" transform="translate(-90, 448)" /><path d="M0 48 C 63 0, 117 0, 180 48 S 297 96, 360 48 S 477 0, 540, 48" fill="none" stroke="#ddd" style="opacity:0.037333333333333;stroke-width:8px;" transform="translate(-90, 168)" /><path d="M0 48 C 63 0, 117 0, 180 48 S 297 96, 360 48 S 477 0, 540, 48" fill="none" stroke="#ddd" style="opacity:0.037333333333333;stroke-width:8px;" transform="translate(-90, 456)" /><path d="M0 48 C 63 0, 117 0, 180 48 S 297 96, 360 48 S 477 0, 540, 48" fill="none" stroke="#222" style="opacity:0.13266666666667;stroke-width:8px;" transform="translate(-90, 176)" /><path d="M0 48 C 63 0, 117 0, 180 48 S 297 96, 360 48 S 477 0, 540, 48" fill="none" stroke="#222" style="opacity:0.13266666666667;stroke-width:8px;" transform="translate(-90, 464)" /><path d="M0 48 C 63 0, 117 0, 180 48 S 297 96, 360 48 S 477 0, 540, 48" fill="none" stroke="#222" style="opacity:0.046;stroke-width:8px;" transform="translate(-90, 184)" /><path d="M0 48 C 63 0, 117 0, 180 48 S 297 96, 360 48 S 477 0, 540, 48" fill="none" stroke="#222" style="opacity:0.046;stroke-width:8px;" transform="translate(-90, 472)" /><path d="M0 48 C 63 0, 117 0, 180 48 S 297 96, 360 48 S 477 0, 540, 48" fill="none" stroke="#ddd" style="opacity:0.14133333333333;stroke-width:8px;" transform="translate(-90, 192)" /><path d="M0 48 C 63 0, 117 0, 180 48 S 297 96, 360 48 S 477 0, 540, 48" fill="none" stroke="#ddd" style="opacity:0.14133333333333;stroke-width:8px;" transform="translate(-90, 480)" /><path d="M0 48 C 63 0, 117 0, 180 48 S 297 96, 360 48 S 477 0, 540, 48" fill="none" stroke="#222" style="opacity:0.098;stroke-width:8px;" transform="translate(-90, 200)" /><path d="M0 48 C 63 0, 117 0, 180 48 S 297 96, 360 48 S 477 0, 540, 48" fill="none" stroke="#222" style="opacity:0.098;stroke-width:8px;" transform="translate(-90, 488)" /><path d="M0 48 C 63 0, 117 0, 180 48 S 297 96, 360 48 S 477 0, 540, 48" fill="none" stroke="#ddd" style="opacity:0.02;stroke-width:8px;" transform="translate(-90, 208)" /><path d="M0 48 C 63 0, 117 0, 180 48 S 297 96, 360 48 S 477 0, 540, 48" fill="none" stroke="#ddd" style="opacity:0.02;stroke-width:8px;" transform="translate(-90, 496)" /></svg>